<?xml version="1.0" encoding="iso-8859-1"?>
<!-- Generator: Adobe Illustrator 19.0.0, SVG Export Plug-In . SVG Version: 6.00 Build 0)  -->
<svg version="1.1" id="Layer_1" xmlns="http://www.w3.org/2000/svg" xmlns:xlink="http://www.w3.org/1999/xlink" x="0px" y="0px"
	 viewBox="0 0 511.999 511.999" style="enable-background:new 0 0 511.999 511.999;" xml:space="preserve">
<g>
	<g>
		<g>
			<path d="M201.242,198.348c-11.904,0-21.593,9.787-21.593,21.871c0,12.083,9.688,21.879,21.593,21.879
				c11.92,0,21.606-9.796,21.606-21.879C222.848,208.135,213.163,198.348,201.242,198.348z"/>
			<path d="M310.595,198.178c-12.019,0-21.769,9.868-21.769,22.043s9.75,22.043,21.769,22.043c12.005,0,21.755-9.868,21.755-22.043
				C332.349,208.045,322.599,198.178,310.595,198.178z"/>
			<path d="M466.085,380.089c13.214-26.426,20.051-56.315,20.111-88.822l25.803-5.992l-7.442-32.052l-20.674,4.801
				c-2.472-17.709-6.888-35.295-13.122-52.364c18.382-51.981,20.379-112.201,5.48-170.762l-4.136-16.258l-16.174,4.451
				c-6.98,1.922-67.584,19.194-96.444,47.1c-4.258-2.47-8.58-4.813-12.975-6.994c-28.945-14.361-59.398-21.642-90.514-21.642
				c-31.117,0-61.57,7.281-90.514,21.642c-4.396,2.181-8.718,4.523-12.976,6.995c-28.86-27.906-89.462-45.18-96.443-47.1
				l-16.174-4.451l-4.136,16.258c-14.899,58.56-12.902,118.78,5.48,170.762c-6.233,17.069-10.649,34.655-13.122,52.364l-20.668-4.8
				L0,285.275l25.799,5.991c0.06,32.508,6.897,62.397,20.112,88.823L0,390.751l7.443,32.054l56.966-13.228
				c8.609,11.17,18.612,21.49,29.977,30.86c41.39,34.128,98.786,52.922,161.612,52.922s120.22-18.795,161.612-52.922
				c11.366-9.372,21.368-19.691,29.978-30.861l56.969,13.229l7.442-32.054L466.085,380.089z M63.855,59.992
				c18.77,6.435,44.858,17.076,60.592,29.362c-11.29,8.967-21.952,19.067-31.9,30.276c-11.139,12.55-21.016,26.114-29.547,40.388
				C57.073,128.177,57.317,94.034,63.855,59.992z M234.532,349.34c-8.513-8.508-12.967-17.439-12.967-21.864
				c0-3.951,0.677-4.235,3.194-5.295c7.175-3.019,21.266-3.367,31.241-3.367s24.066,0.349,31.24,3.367
				c2.517,1.058,3.194,1.344,3.194,5.295c0,4.425-4.454,13.355-12.967,21.864c-8.37,8.366-17.307,12.88-21.467,12.88
				S242.903,357.705,234.532,349.34z M432.814,372.364l-63.409-14.724l-7.441,32.053l49.511,11.497
				c-4.576,4.861-9.503,9.491-14.8,13.858c-31.946,26.341-75.589,42.027-124.223,44.913v-68.12
				c12.918-4.985,23.439-14.393,28.275-19.227c6.798-6.795,22.612-24.796,22.612-45.138c0-16.642-8.289-29.293-23.338-35.625
				c-10.033-4.221-22.782-5.943-44.002-5.943c-21.221,0-33.97,1.722-44.002,5.943c-15.05,6.331-23.339,18.983-23.339,35.625
				c0,20.342,15.813,38.343,22.612,45.138c4.836,4.834,15.358,14.242,28.276,19.227v68.12
				c-48.635-2.885-92.28-18.572-124.227-44.913c-5.297-4.367-10.223-8.996-14.799-13.858l49.516-11.498l-7.444-32.052L79.18,372.364
				c-12.284-21.61-19.159-46.331-20.301-73.415l83.713,19.439l7.443-32.054l-89.74-20.839
				c5.579-44.705,25.614-88.815,56.862-124.024c38.353-43.212,87.66-67.011,138.84-67.011c51.18,0,100.487,23.799,138.84,67.011
				c31.249,35.209,51.284,79.321,56.862,124.025l-89.735,20.839l7.442,32.054l83.707-19.439
				C451.973,326.032,445.098,350.753,432.814,372.364z M448.995,160.016c-8.531-14.273-18.409-27.837-29.546-40.388
				c-9.947-11.209-20.609-21.308-31.898-30.273c15.715-12.257,41.813-22.906,60.592-29.353
				C454.679,94.04,454.921,128.179,448.995,160.016z"/>
		</g>
	</g>
</g>
<g>
</g>
<g>
</g>
<g>
</g>
<g>
</g>
<g>
</g>
<g>
</g>
<g>
</g>
<g>
</g>
<g>
</g>
<g>
</g>
<g>
</g>
<g>
</g>
<g>
</g>
<g>
</g>
<g>
</g>
</svg>
