<?xml version="1.0" encoding="iso-8859-1"?>
<!-- Generator: Adobe Illustrator 19.0.0, SVG Export Plug-In . SVG Version: 6.00 Build 0)  -->
<svg version="1.1" id="Capa_1" xmlns="http://www.w3.org/2000/svg" xmlns:xlink="http://www.w3.org/1999/xlink" x="0px" y="0px"
	 viewBox="0 0 512 512" style="enable-background:new 0 0 512 512;" xml:space="preserve">
<g>
	<g>
		<g>
			<path d="M512,224C512,65.813,266.448,64,256,64S0,65.813,0,224c0,2.708,0.49,63.333,40.823,90.375
				c-5.26,22.167-2.521,45.208,7.958,65.729c11.896,23.313,32.25,40.5,57.323,48.396C147.135,441.438,197.563,448,256,448
				s108.865-6.563,149.896-19.5c25.073-7.896,45.427-25.083,57.323-48.396c10.479-20.521,13.219-43.563,7.958-65.729
				C511.51,287.333,512,226.708,512,224z M444.219,370.417c-9.271,18.167-25.167,31.583-44.74,37.75
				c-38.948,12.271-87.219,18.5-143.479,18.5s-104.531-6.229-143.479-18.5c-19.573-6.167-35.469-19.583-44.74-37.75
				c-7.72-15.124-9.699-31.948-6.465-48.331c26.422,5.654,99.767,19.247,194.684,19.247s168.262-13.594,194.684-19.247
				C453.918,338.469,451.939,355.293,444.219,370.417z M160,256c0-47.063,43.063-85.333,96-85.333s96,38.271,96,85.333
				c0,23.396-11.092,45.633-30.16,61.729C301.418,319.108,279.383,320,256,320c-23.375,0-45.414-0.895-65.848-2.276
				C171.092,301.629,160,279.404,160,256z M454.702,299.309c-7.385,1.738-45.306,10.259-101.232,15.814
				c12.737-17.362,19.863-37.837,19.863-59.122c0-58.813-52.635-106.667-117.333-106.667S138.667,197.188,138.667,256
				c0,21.288,7.125,41.757,19.853,59.113c-55.871-5.556-93.827-14.068-101.22-15.805C21.971,280.762,21.333,224.559,21.333,224
				C21.333,87.083,253.656,85.333,256,85.333S490.667,87.083,490.667,224C490.667,224.578,490.212,280.685,454.702,299.309z"/>
			<path d="M200.083,298.354c5.677,1.354,11.49-2.042,12.927-7.771l15.094-60.354l18.75,31.25c3.854,6.458,14.438,6.458,18.292,0
				l18.75-31.25l15.094,60.354c1.208,4.854,5.552,8.083,10.333,8.083c0.854,0,1.729-0.104,2.594-0.313
				c5.719-1.438,9.198-7.229,7.76-12.938l-21.333-85.333c-1.042-4.188-4.51-7.333-8.771-7.958c-4.292-0.625-8.49,1.354-10.719,5.063
				L256,235.271l-22.854-38.083c-2.219-3.708-6.396-5.688-10.719-5.063c-4.26,0.625-7.729,3.771-8.771,7.958l-21.333,85.333
				C190.885,291.125,194.365,296.917,200.083,298.354z"/>
		</g>
	</g>
</g>
<g>
</g>
<g>
</g>
<g>
</g>
<g>
</g>
<g>
</g>
<g>
</g>
<g>
</g>
<g>
</g>
<g>
</g>
<g>
</g>
<g>
</g>
<g>
</g>
<g>
</g>
<g>
</g>
<g>
</g>
</svg>
