<?xml version="1.0" encoding="iso-8859-1"?>
<!-- Generator: Adobe Illustrator 19.0.0, SVG Export Plug-In . SVG Version: 6.00 Build 0)  -->
<svg version="1.1" id="Capa_1" xmlns="http://www.w3.org/2000/svg" xmlns:xlink="http://www.w3.org/1999/xlink" x="0px" y="0px"
	 viewBox="0 0 512.003 512.003" style="enable-background:new 0 0 512.003 512.003;" xml:space="preserve">
<g>
	<g>
		<path d="M510.689,474.863L265.356,26.464c-3.75-6.839-14.958-6.839-18.708,0L1.314,474.863c-1.813,3.305-1.75,7.329,0.188,10.572
			c1.917,3.242,5.396,5.234,9.167,5.234h490.667c3.771,0,7.25-1.991,9.167-5.234C512.439,482.192,512.502,478.168,510.689,474.863z
			 M256.002,54.21l104.665,191.125H151.336L256.002,54.21z M28.668,469.335l104.667-191.128l104.664,191.128H28.668z
			 M151.335,266.668h209.333L256.002,457.793L151.335,266.668z M274.004,469.335l104.664-191.128l104.667,191.128H274.004z"/>
	</g>
</g>
<g>
</g>
<g>
</g>
<g>
</g>
<g>
</g>
<g>
</g>
<g>
</g>
<g>
</g>
<g>
</g>
<g>
</g>
<g>
</g>
<g>
</g>
<g>
</g>
<g>
</g>
<g>
</g>
<g>
</g>
</svg>
